<?xml version="1.0" standalone="no"?>
<!DOCTYPE svg PUBLIC "-//W3C//DTD SVG 20010904//EN"
 "http://www.w3.org/TR/2001/REC-SVG-20010904/DTD/svg10.dtd">
<svg version="1.0" xmlns="http://www.w3.org/2000/svg"
 width="640.000000pt" height="640.000000pt" viewBox="0 0 640.000000 640.000000"
 preserveAspectRatio="xMidYMid meet">
<metadata>
Created by potrace 1.11, written by Peter Selinger 2001-2013
</metadata>
<g transform="translate(0.000000,640.000000) scale(0.100000,-0.100000)"
fill="#000000" stroke="none">
<path d="M2835 5290 c-940 -60 -1634 -301 -2133 -741 -130 -114 -230 -261
-265 -389 -49 -176 -49 -185 14 -378 31 -94 51 -172 51 -198 -1 -23 3 -56 7
-72 7 -22 5 -36 -5 -49 -7 -10 -14 -27 -14 -39 0 -13 -20 -38 -50 -63 -28 -23
-48 -47 -44 -52 3 -5 0 -8 -7 -7 -6 2 -32 -34 -56 -79 -41 -78 -43 -84 -29
-110 24 -48 53 -67 94 -64 37 2 37 2 49 -49 11 -44 10 -55 -3 -75 -9 -13 -12
-30 -8 -36 4 -8 3 -9 -4 -5 -20 12 -56 -162 -47 -229 11 -77 39 -215 44 -215
3 0 7 -16 9 -35 1 -20 15 -61 31 -93 209 -414 915 -706 1956 -809 226 -22
1082 -25 1345 -5 638 50 1075 138 1413 287 126 56 213 108 337 201 175 132
255 246 317 449 23 78 27 108 27 221 1 79 -3 136 -10 145 -6 8 -12 32 -13 54
-3 65 -31 186 -52 227 -20 39 -18 58 5 58 8 0 24 8 36 18 34 28 20 64 -41 109
-27 21 -61 57 -75 80 l-24 42 26 38 c21 31 25 46 20 80 -6 46 13 179 44 297
63 246 -34 483 -312 758 -170 170 -327 282 -549 393 -343 173 -783 284 -1289
325 -178 15 -630 20 -795 10z m-668 -296 c47 -27 83 -78 83 -119 0 -55 -104
-115 -199 -115 -52 0 -120 37 -138 75 -14 29 -14 35 1 67 35 74 128 134 186
121 14 -3 44 -16 67 -29z m1383 -214 c75 -38 89 -91 41 -157 -83 -115 -215
-124 -265 -19 -21 45 -15 84 22 128 58 69 128 86 202 48z m681 -18 c94 -60
123 -126 75 -171 -38 -36 -96 -38 -160 -7 -70 34 -94 77 -72 130 33 80 82 95
157 48z m920 -185 c64 -43 73 -98 25 -154 -48 -55 -152 -22 -214 68 -30 44
-25 60 28 87 58 29 117 29 161 -1z m-3996 1 c14 -6 28 -22 31 -34 8 -33 -13
-90 -43 -114 -22 -17 -28 -18 -56 -6 -18 7 -38 23 -45 37 -13 25 -8 78 9 111
11 21 65 24 104 6z m772 -49 c63 -23 122 -109 123 -176 0 -41 -45 -94 -103
-121 -92 -43 -275 -65 -358 -42 -65 18 -127 111 -114 171 8 36 54 83 109 111
106 55 274 83 343 57z m2132 -254 c41 -21 81 -72 81 -104 0 -37 -41 -81 -76
-81 -40 0 -91 36 -119 84 -34 59 -33 84 8 101 42 18 71 18 106 0z m-1412 -379
c33 -28 53 -83 53 -145 0 -36 -4 -44 -32 -61 -67 -40 -186 -38 -232 5 -46 43
-29 130 33 175 35 24 97 48 128 49 12 1 35 -10 50 -23z m-2240 -1138 c-3 -7
-5 -2 -5 12 0 14 2 19 5 13 2 -7 2 -19 0 -25z m748 -7 c125 -21 295 -33 423
-29 99 2 129 0 117 -8 -8 -6 -15 -14 -15 -18 0 -8 95 -1 200 16 36 5 124 11
195 13 72 2 211 11 309 20 151 13 211 14 374 4 173 -10 200 -14 250 -37 l57
-25 -55 -9 c-121 -19 -341 -63 -650 -128 -379 -81 -433 -90 -560 -90 -157 0
-194 10 -306 83 -125 82 -247 147 -349 188 -78 30 -111 47 -70 36 11 -3 47
-10 80 -16z m2018 -48 c-7 -2 -19 -2 -25 0 -7 3 -2 5 12 5 14 0 19 -2 13 -5z
m1962 -3 l-30 -7 38 -7 c20 -5 81 -12 135 -16 78 -6 85 -7 37 -8 -63 -2 -218
13 -270 25 -28 7 -26 8 20 14 28 3 61 6 75 6 22 1 21 0 -5 -7z m-2028 -6 c-3
-3 -12 -4 -19 -1 -8 3 -5 6 6 6 11 1 17 -2 13 -5z"/>
</g>
</svg>
